<svg xmlns="http://www.w3.org/2000/svg" xmlns:xlink="http://www.w3.org/1999/xlink" x="0" y="0" fill="#A68954" version="1.1" viewBox="0 0 64 80" style="enable-background:new 0 0 64 64" xml:space="preserve"><g><path d="M52,3H12c-0.6,0-1,0.4-1,1v4c0,0.6,0.4,1,1,1h1v9h-1c-0.6,0-1,0.4-1,1v7c0,0.6,0.4,1,1,1h2v2.6l-2.7,2.7 C11.1,32.5,11,32.7,11,33v6c0,0.3,0.1,0.5,0.3,0.7l2.7,2.7V50c0,0.6,0.4,1,1,1h0.2l1.6,6.3c0.2,0.7,0.6,1.2,1.2,1.5V60 c0,0.6,0.4,1,1,1s1-0.4,1-1v-1.2c0.6-0.3,1-0.8,1.2-1.5l1.6-6.3H23c0.6,0,1-0.4,1-1v-7.6l2.7-2.7c0.2-0.2,0.3-0.4,0.3-0.7v-6 c0-0.3-0.1-0.5-0.3-0.7L24,29.6V27h2c0.4,0,0.8-0.3,0.9-0.7l0.8-2.3H40c0.3,0,0.5-0.1,0.7-0.3l6.7-6.7H52c0.6,0,1-0.4,1-1V4 C53,3.4,52.6,3,52,3z M15,9h2.5l-0.3,0.4C17.1,9.6,17,9.8,17,10v7c0,0.2,0.1,0.4,0.2,0.6l0.3,0.4H15V9z M37.8,9.4L37.5,9H40v6.6 L37.6,18h-0.1l0.3-0.4c0.1-0.2,0.2-0.4,0.2-0.6v-7C38,9.8,37.9,9.6,37.8,9.4z M28.2,17.6l0.3,0.4h-1.9l0.3-0.4 c0.1-0.2,0.2-0.4,0.2-0.6v-7c0-0.2-0.1-0.4-0.2-0.6L26.5,9h1.9l-0.3,0.4C28.1,9.6,28,9.8,28,10v7C28,17.2,28.1,17.4,28.2,17.6z M22,49h-6v-6h6V49z M22,29h-6v-2h6V29z M51,15h-4c-0.3,0-0.5,0.1-0.7,0.3L39.6,22H27c-0.4,0-0.8,0.3-0.9,0.7L25.3,25H23h-8h-2v-5 h6.3h5.3h5.7h5.3H38c0.3,0,0.5-0.1,0.7-0.3l3-3c0.2-0.2,0.3-0.4,0.3-0.7V8c0-0.6-0.4-1-1-1h-5.3h-5.3h-5.7h-5.3H13V5h38V15z"/></g></svg>